<svg width="272" height="142" viewBox="0 0 272 142" xmlns="http://www.w3.org/2000/svg"><title>Logo</title><path d="M58.71 54.854c-.846 0-1.726-.378-2.548-1.092L42.87 42.202c-.434-.378-.473-.974-.095-1.45l1.141-1.437c.172-.216.45-.34.76-.34.257 0 .506.088.685.244l12.483 10.854 1.3-18.579c.042-.596.555-.952 1.027-.952l1.914.13c.273.019.523.145.703.356.18.208.267.472.249.742l-1.397 19.818c-.134 1.923-1.339 3.266-2.928 3.266zm10.235 0c-1.589 0-2.793-1.343-2.928-3.266L64.62 31.77a1.02 1.02 0 0 1 .249-.742c.18-.21.43-.337.702-.356l1.85-.129c.54 0 1.05.357 1.092.952l1.3 18.578 12.483-10.854c.179-.156.428-.244.684-.244.311 0 .588.124.76.34l1.142 1.437c.378.477.34 1.073-.095 1.45l-13.293 11.56c-.821.714-1.703 1.092-2.55 1.092zM31.159 63.56c-.54 0-.99-.419-1.028-.953l-.129-1.844c-.033-.492.32-1.05.952-1.095l18.589-1.3-10.86-12.476a1.063 1.063 0 0 1-.24-.786.931.931 0 0 1 .336-.658l1.438-1.14c.215-.171.455-.261.695-.261.288 0 .557.126.756.356L53.234 56.69c1.02 1.171 1.346 2.472.892 3.567-.452 1.09-1.598 1.803-3.067 1.907l-19.83 1.395-.07.002zm65.267-.002l-19.829-1.395c-1.47-.104-2.616-.816-3.067-1.907-.454-1.095-.129-2.396.892-3.567l11.565-13.286c.2-.23.47-.356.757-.356.24 0 .48.09.694.26l1.439 1.141a.937.937 0 0 1 .336.658c.027.29-.063.583-.24.786l-10.86 12.477 18.588 1.299c.632.045.986.603.952 1.095l-.128 1.844c-.037.534-.49.953-1.028.953l-.071-.002zm141.777 14.71a1.033 1.033 0 0 1-1.032-1.032v-4.81c0-.569.463-1.031 1.032-1.031h1.877c.569 0 1.032.462 1.032 1.03v4.811c0 .568-.463 1.031-1.032 1.031h-1.877zM40.912 85.652c-.24 0-.48-.09-.695-.26L38.78 84.25a.93.93 0 0 1-.336-.657c-.027-.29.063-.583.24-.786l10.86-12.477-18.59-1.299c-.63-.045-.984-.604-.95-1.096l.128-1.844a1.03 1.03 0 0 1 1.028-.952l19.9 1.397c1.47.103 2.615.816 3.067 1.907.454 1.095.129 2.395-.892 3.567L41.668 85.297a.995.995 0 0 1-.756.356zm45.832 0a.999.999 0 0 1-.757-.356L74.422 72.011c-1.02-1.172-1.346-2.472-.892-3.567.45-1.091 1.597-1.804 3.067-1.907l19.834-1.396c.608 0 1.057.42 1.094.951l.128 1.844c.034.492-.32 1.051-.952 1.096l-18.588 1.3 10.86 12.476c.177.203.267.497.24.786a.934.934 0 0 1-.336.657l-1.439 1.141c-.214.17-.455.261-.694.261zM60.171 98.158c-.472 0-.986-.356-1.028-.953l-1.3-18.578L45.36 89.482a1.051 1.051 0 0 1-.684.243.958.958 0 0 1-.761-.34l-1.141-1.438c-.378-.476-.34-1.072.095-1.45l13.293-11.56c.822-.713 1.702-1.09 2.55-1.09 1.588 0 2.793 1.342 2.927 3.265l1.397 19.817c.018.27-.07.535-.25.743-.18.21-.43.337-.702.356l-1.845.128-.068.002zm7.245-.002l-1.845-.128a1.016 1.016 0 0 1-.702-.356 1.02 1.02 0 0 1-.249-.743l1.397-19.817c.135-1.923 1.338-3.266 2.928-3.266.846 0 1.728.378 2.549 1.092l13.293 11.559c.434.378.473.974.095 1.45l-1.142 1.438a.957.957 0 0 1-.76.34c-.256 0-.505-.088-.684-.243L69.813 78.627l-1.3 18.578c-.043.597-.556.953-1.028.953l-.069-.002zm71.782 12.39a1.034 1.034 0 0 1-1.032-1.031V65.533c0-.568.463-1.03 1.032-1.03h1.877c.569 0 1.032.462 1.032 1.03v43.982c0 .568-.463 1.032-1.032 1.032h-1.877zm76.95 0a1.034 1.034 0 0 1-1.031-1.031V65.533c0-.568.463-1.03 1.031-1.03h1.878c.569 0 1.032.462 1.032 1.03v43.982c0 .568-.463 1.032-1.032 1.032h-1.878zm11.028 0a1.033 1.033 0 0 1-1.032-1.031V65.533c0-.568.463-1.03 1.032-1.03h1.877c.569 0 1.031.462 1.031 1.03v43.982c0 .568-.462 1.032-1.031 1.032h-1.877zm11.027 0a1.034 1.034 0 0 1-1.032-1.031V84.71c0-.57.463-1.032 1.032-1.032h1.877c.569 0 1.032.463 1.032 1.032v24.805c0 .568-.463 1.032-1.032 1.032h-1.877zM116.887 86.832c-5.748 0-10.252 4.53-10.252 10.314 0 5.65 4.599 10.246 10.252 10.246 6.418 0 10.253-5.209 10.253-10.246 0-5.784-4.504-10.314-10.253-10.314zm0 24.499c-7.825 0-14.192-6.363-14.192-14.185 0-7.859 6.367-14.253 14.192-14.253 5.213 0 8.721 2.814 10.349 4.492l.176.182.907-3.08c.165-.563.728-.971 1.337-.971.275 0 .678.084 1.03.486.254.29.394.68.394 1.098v24.416c0 .568-.463 1.032-1.032 1.032h-1.877a1.033 1.033 0 0 1-1.031-1.032v-2.584l-.255.26c-2.491 2.553-6.323 4.139-9.998 4.139zm46.499-24.499c-5.04 0-10.252 3.858-10.252 10.314 0 5.746 4.503 10.246 10.252 10.246 5.594 0 10.32-4.692 10.32-10.246 0-5.59-4.726-10.314-10.32-10.314zm0 24.499c-4.607 0-8.334-2.294-10.288-4.44l-.17-.189-.971 2.968c-.192.587-.78 1.047-1.34 1.047a1.409 1.409 0 0 1-1.424-1.424v-43.76c0-.568.464-1.03 1.033-1.03h1.876c.569 0 1.032.463 1.032 1.031v21.759l.254-.26c2.492-2.553 6.323-4.14 9.998-4.14 7.825 0 14.192 6.394 14.192 14.253 0 7.822-6.367 14.185-14.192 14.185zm32.233-24.495c-4.282 0-8.158 2.696-9.645 6.709l-.073.199h19.437l-.074-.2c-1.486-4.012-5.362-6.708-9.645-6.708zm0 24.495a14.124 14.124 0 0 1-10.179-4.285 14.11 14.11 0 0 1-4.043-10.277c.178-7.559 6.48-13.783 14.046-13.875h.176c7.528 0 13.767 5.877 14.203 13.38.004.063.007.164.009.287.004.298-.108.579-.316.791-.21.213-.49.33-.789.33h-23.371l.01.158c.376 5.354 4.88 9.549 10.254 9.549 3.634 0 6.927-1.86 8.808-4.976a.933.933 0 0 1 .805-.454c.217 0 .422.073.591.21l1.553 1.267c.408.332.502.916.217 1.357a14.184 14.184 0 0 1-11.974 6.538z" fill="#FF6A13" fill-rule="evenodd"/></svg>