<svg xmlns="http://www.w3.org/2000/svg" viewBox="0 0 155.91 44.86"><defs><linearGradient id="a" x1="368.96" y1="438.31" x2="368.96" y2="443.05" gradientUnits="userSpaceOnUse"><stop offset="0" stop-color="#e31c48"/><stop offset="1" stop-color="#b62347"/></linearGradient><linearGradient id="b" x1="-2074.63" y1="438.48" x2="-2071.18" y2="438.48" gradientUnits="userSpaceOnUse"><stop offset="0" stop-color="#fff"/><stop offset="1" stop-color="#fff"/></linearGradient></defs><title>logo</title><path d="M127.48 14.15a10.69 10.69 0 0 0-5.79-1.31 11.3 11.3 0 0 0-5.73 1.44 4.41 4.41 0 0 0-2.33 3.83h5.48a1.84 1.84 0 0 1 .83-1.65 3 3 0 0 1 1.81-.5c1.71 0 2.64.74 2.64 2v2.45h-2.43c-3.15 0-4.91.44-6.25 1.21a4.52 4.52 0 0 0-2.53 4 4.74 4.74 0 0 0 1.65 4 7.78 7.78 0 0 0 5.12 1.48 7 7 0 0 0 3.1-.6 6.09 6.09 0 0 0 1.65-1.17v1.52h5.17v-12.5a4.73 4.73 0 0 0-2.39-4.2zm-3.1 11.45c0 1.44-1.24 2.35-2.89 2.35-1.86 0-2.84-.87-2.84-2.45a2.45 2.45 0 0 1 1.09-2 5.24 5.24 0 0 1 2.84-.54h1.81v2.62zm-18.29-11.39c-1.24-.94-2.63-1.38-5.17-1.38a9.66 9.66 0 0 0-2.89.47 10.48 10.48 0 0 0-2.43 1.34 7.93 7.93 0 0 0-5.32-1.81 7.78 7.78 0 0 0-2.74.47 6 6 0 0 0-1.81 1.11V13.1h-5.27v17.75h5.48V18.08c0-1.38 1.19-2 2.69-2s2.69.67 2.69 2v12.77h5.48V18.08c0-1.38 1.19-2 2.69-2s2.74.67 2.74 2v12.77h5.48V18.04c-.02-2.05-.54-3.02-1.62-3.83zm45.31 0a9.08 9.08 0 0 0-7.7-.91 6 6 0 0 0-1.81 1.11V13.1h-5.27v17.75h5.48V18.08c0-1.38 1.19-2 2.69-2s2.69.67 2.69 2v12.77h5.47V18.04c0-2.05-.47-3.02-1.56-3.83zm-79.46 0a9.94 9.94 0 0 0-5.84-1.36 10.41 10.41 0 0 0-5.84 1.41c-2.32 1.51-2.53 4.47-2.53 7.69s.21 6.18 2.53 7.69a10 10 0 0 0 5.89 1.44 10.27 10.27 0 0 0 5.89-1.41 5.26 5.26 0 0 0 2.27-4.06h-5.42a2.22 2.22 0 0 1-.67 1.58 3.46 3.46 0 0 1-4.18 0c-.67-.64-.83-2.18-.83-4.2h11.21c-.05-3.33.15-6.93-2.48-8.74zm-8.73 6.11c0-1.81.21-3.16.83-3.66a3.38 3.38 0 0 1 4.13 0c.62.5.78 1.85.78 3.66h-5.73zm-40.39 10h2.44c2.76 0 3.84-1.12 3.84-4.44 0-3.16-1.13-4.44-3.84-4.44h-2.44v8.88zm24.79-15.39v-1.88h-5l5.84-10.38-22.6-2.72-3.92 5.93h3.91c3 0 4.92.56 6.28 1.76s2 3.2 2 6c0 1.92-.23 3.52-1.67 4.8a5.28 5.28 0 0 1-1.67 1 4.71 4.71 0 0 1 1.72 1c1.58 1.52 1.72 3.68 1.72 5.44a19.4 19.4 0 0 1-.12 2.32l8.3-14.76v17.41h5.48v-11.5c0-1.91 2-3.06 4.55-3.06h1.86v-3.44a11.61 11.61 0 0 0-4.24.74 7.78 7.78 0 0 0-2.44 1.4zM29 13.85c0-2.88-1.08-3.84-3.79-3.84h-2.4v7.72h2.4c2.66-.04 3.79-1.2 3.79-3.88zm-11.25-1.63L0 39l24.71 5.85 5.88-10.45H17.75V12.18z" fill="#005496"/><path fill="#58ab40" d="M30.64 34.41l5.92 9.45h103.29l-2.73-4.73 2.72-4.72H30.64z"/><path d="M374.72 434.81a35.4 35.4 0 0 0-13.72 4.32l2.26 3.92H374l2.93-4.74-2.17-3.51z" transform="translate(-221 -399.15)" fill="url(#a)"/><path d="M153.74 35.65l-.74-1.23h-10.7l-2.73 4.74.47.82a35.4 35.4 0 0 1 13.71-4.32z" fill="#f58e7d"/><path d="M372.31 438.55a1.38 1.38 0 0 0-.45-.21 1.5 1.5 0 0 0 .44-.2 1 1 0 0 0 .44-1 1.28 1.28 0 0 0-.52-1.19 2.94 2.94 0 0 0-1.65-.35h-6.17v.8h1.41v4.83h1.33v-4.83h1.32v4.83h2.1a2.91 2.91 0 0 0 1.66-.36 1.4 1.4 0 0 0 .55-1.31 1.2 1.2 0 0 0-.46-1.01zm-2.53-2.09h.63c.71 0 1 .19 1 .76s-.3.77-1 .77h-.63v-1.53zm.64 4h-.64v-1.76h.64a.81.81 0 0 1 1 .88c.02.7-.27.92-.99.92z" transform="translate(-221 -399.15)" fill="url(#b)"/><path d="M42.3 36.09h.84v5.68h-.84v-5.68zM45.23 37.98a3.47 3.47 0 0 1-.15-.39v4.17h-.84v-5.68h.86l2 3.8a2.32 2.32 0 0 1 .14.37h.05v-4.17h.84v5.68h-.86zM49.2 41.05l.11-.05a4.29 4.29 0 0 0 1.06.15.9.9 0 0 0 1.07-1 .85.85 0 0 0-.71-.84l-.61-.21a1.44 1.44 0 0 1-1.08-1.46 1.56 1.56 0 0 1 1.81-1.65 5.53 5.53 0 0 1 1 .11c0 .29-.05.66-.05.66l-.09.06a4 4 0 0 0-.85-.1.83.83 0 0 0-1 .88.74.74 0 0 0 .57.8l.61.22a1.55 1.55 0 0 1 1.22 1.51 1.59 1.59 0 0 1-1.85 1.76 5.27 5.27 0 0 1-1.2-.15c-.01-.36-.01-.69-.01-.69zM52.41 36.09h3.11v.76h-1.13v4.95h-.84v-4.95h-1.14v-.73zM58.2 40.44h-1.7l-.34 1.33h-.86l1.49-5.68h1.13l1.49 5.68h-.87zm-1.51-.73H58l-.54-2.13c-.05-.19-.1-.51-.1-.51h-.05s0 .32-.1.51zM60.05 36.09h.84v4.95h1.68v.73h-2.52v-5.68zM63.22 36.09h.84v4.95h1.68v.73h-2.52v-5.68zM68.85 40.44h-1.7l-.34 1.33h-.87l1.49-5.68h1.13l1.49 5.68h-.87zm-1.51-.73h1.33l-.54-2.13c-.05-.19-.1-.51-.1-.51H68s0 .32-.1.51zM69.83 36.09h3.11v.76h-1.13v4.95H71v-4.95h-1.14v-.73zM73.59 36.09h.84v5.68h-.84v-5.68zM75.53 36.09h2.61v.76h-1.77v1.68h1.51v.65h-1.51v1.89h1.85v.73h-2.69v-5.68zM81.26 40.85v-2.19h.84v3.1h-.46l-.13-.35a1.71 1.71 0 0 1-1.13.46c-1 0-1.77-.65-1.77-2.73v-.29c0-2.15.81-2.86 2.19-2.86a5.08 5.08 0 0 1 1.14.16c0 .28-.07.65-.07.65h-.08a5.07 5.07 0 0 0-.92-.13c-1 0-1.4.49-1.4 2.18v.27c0 1.6.44 2 1.07 2a1.14 1.14 0 0 0 .72-.27zM86.38 37.85a1.37 1.37 0 0 1-.87 1.39 1 1 0 0 1 .22.4l.8 2.07h-.9l-.83-2.12a.28.28 0 0 0-.31-.21h-.62v2.32H83v-5.68h1.51a1.57 1.57 0 0 1 1.85 1.69v.14zm-2.52-1v2h.68a.82.82 0 0 0 1-.88v-.12a.89.89 0 0 0-1.09-1h-.59zM89 35.99c1.19 0 1.77.94 1.77 2.77v.35c0 1.83-.58 2.76-1.77 2.76h-.09c-1.18 0-1.76-.93-1.76-2.76v-.35c0-1.83.58-2.77 1.76-2.77H89zm.9 2.72c0-1.36-.29-2-.93-2-.66 0-.93.62-.93 2v.45c0 1.36.29 2 .93 2 .66 0 .93-.62.93-2v-.45zM91.74 36.09h2.61v.76h-1.77v1.68h1.51v.65h-1.51v1.89h1.85v.73h-2.69v-5.68zM95.13 36.09h1.51a1.57 1.57 0 0 1 1.72 1.83v.32a1.42 1.42 0 0 1-1.56 1.59H96v1.94h-.84v-5.68zm.87.76v2.37h.65a.82.82 0 0 0 .91-.95v-.28a.93.93 0 0 0-1-1.14H96z" fill="#fff"/></svg>